<?xml version="1.0" encoding="utf-8"?>
<!-- Generator: Adobe Illustrator 24.2.1, SVG Export Plug-In . SVG Version: 6.00 Build 0)  -->
<svg version="1.1" id="Слой_1" xmlns="http://www.w3.org/2000/svg" xmlns:xlink="http://www.w3.org/1999/xlink" x="0px" y="0px"
	 viewBox="0 0 588.4 587.4" style="enable-background:new 0 0 588.4 587.4;" xml:space="preserve">
<style type="text/css">
	.st0{fill:#FFFFFF;}
</style>
<path class="st0" d="M462.8,43.5H125.7c-45.9,0-83.4,37.5-83.4,83.4v337.7c0,45.9,37.5,83.4,83.4,83.4h337.7
	c45.9,0,83.4-37.5,83.4-83.4l0-337.7C546.2,81,508.7,43.5,462.8,43.5L462.8,43.5z M490.8,126.9v44.2c0,14-11.2,25.2-25.2,25.2h-46.5
	c-14,0-25.2-11.2-25.2-25.2v-46.5c0-14,11.2-25.2,25.2-25.2h46.5c14,0,25.2,11.2,25.2,25.2V126.9z M390,295.4
	c0,53.2-43.1,95.8-95.8,95.8c-53.2,0-95.8-43.1-95.8-95.8s43.1-95.8,95.8-95.8S390,242.2,390,295.4z M462.8,492H125.7
	c-15.1,0-28-12.3-28-28V243.9h53.8c-5.6,16.2-9,33-9,51.5c0,83.4,67.8,151.2,151.8,151.2c83.4,0,151.2-67.8,151.2-151.2
	c0-17.9-3.4-35.3-9-51.5h53.8V464C490.8,479.7,478.5,492,462.8,492L462.8,492z"/>
</svg>
